# xmcd
#
# Track frame offsets: 
#        150
#        21465
#        35207
#        55357
#        68267
#        87245
#        111150
#        124642
#        148082
#
# Disc length: 2153 seconds
#
# Revision: 3
# Processed by: cddbd v1.5.2PL0 Copyright (c) Steve Scherf et al.
# Submitted via: ExactAudioCopyFreeDBPlugin 1.0
#
DISCID=7e086709
DTITLE=Bobby Womack - Bobby Womack:  The Collection [BCM Records] [box
DTITLE=set]
DYEAR=1971
DGENRE=Soul
TTITLE0=Communication
TTITLE1=Come L'Amore
TTITLE2=Fire and rain
TTITLE3=(If You Don't Want My Love) Give it Back
TTITLE4=Monologue
TTITLE5=(They Long To Be) Close to You
TTITLE6=Everything is Beautiful
TTITLE7=That's the Way I Feel About Cha
TTITLE8=Yield Not to Temptation
EXTD=
EXTT0=
EXTT1=
EXTT2=
EXTT3=
EXTT4=
EXTT5=
EXTT6=
EXTT7=
EXTT8=
PLAYORDER=
